<svg width="71" height="50" viewBox="0 0 71 50" fill="none" xmlns="http://www.w3.org/2000/svg">
<path d="M64.1338 14.0625C65.1738 14.605 66.1214 15.2669 66.9765 16.0482C67.8316 16.8294 68.548 17.6975 69.1258 18.6523C69.7036 19.6072 70.1658 20.6163 70.5125 21.6797C70.8592 22.7431 71.0209 23.8498 70.9978 25H66.5605C66.5605 23.8715 66.3294 22.7973 65.8671 21.7773C65.4049 20.7574 64.7693 19.8785 63.9604 19.1406C63.1516 18.4028 62.204 17.806 61.1178 17.3503C60.0315 16.8945 58.8875 16.6667 57.6857 16.6667C56.4608 16.6667 55.3168 16.8837 54.2537 17.3177C53.1906 17.7517 52.2546 18.3485 51.4457 19.1081C50.6368 19.8676 50.0012 20.7574 49.539 21.7773C49.0768 22.7973 48.8341 23.8715 48.811 25C48.811 26.9748 48.3372 28.852 47.3897 30.6315C46.4421 32.411 45.1132 33.8867 43.403 35.0586C44.9052 35.7747 46.2572 36.6536 47.459 37.6953C48.6608 38.737 49.7008 39.9089 50.579 41.2109C51.4573 42.513 52.1159 43.9019 52.555 45.3776C52.9942 46.8533 53.2253 48.3941 53.2484 50H48.811C48.811 48.2856 48.4643 46.6688 47.771 45.1497C47.0777 43.6306 46.1185 42.3069 44.8937 41.1784C43.6688 40.0499 42.259 39.1602 40.6643 38.5091C39.0696 37.8581 37.3478 37.5217 35.4989 37.5C33.6731 37.5 31.9513 37.8255 30.3335 38.4766C28.7158 39.1276 27.306 40.0282 26.1042 41.1784C24.9024 42.3286 23.9548 43.6523 23.2615 45.1497C22.5682 46.6471 22.2099 48.2639 22.1868 50H17.7495C17.7495 48.4158 17.9806 46.8858 18.4428 45.4102C18.905 43.9345 19.5637 42.5456 20.4188 41.2435C21.2739 39.9414 22.3024 38.7695 23.5042 37.7279C24.706 36.6862 26.0695 35.7964 27.5949 35.0586C25.9077 33.8867 24.5904 32.411 23.6428 30.6315C22.6953 28.852 22.2099 26.9748 22.1868 25C22.1868 23.8715 21.9557 22.7973 21.4935 21.7773C21.0313 20.7574 20.3957 19.8785 19.5868 19.1406C18.7779 18.4028 17.8303 17.806 16.7441 17.3503C15.6579 16.8945 14.5139 16.6667 13.3121 16.6667C12.0872 16.6667 10.9432 16.8837 9.88007 17.3177C8.81695 17.7517 7.88094 18.3485 7.07205 19.1081C6.26315 19.8676 5.62759 20.7574 5.16537 21.7773C4.70314 22.7973 4.46048 23.8715 4.43736 25H0C0 23.8715 0.161779 22.7756 0.485337 21.7122C0.808895 20.6489 1.25956 19.6398 1.83735 18.6849C2.41513 17.73 3.14313 16.862 4.02136 16.0807C4.89959 15.2995 5.84715 14.6267 6.86405 14.0625C6.10138 13.303 5.51204 12.424 5.09604 11.4258C4.68003 10.4275 4.46048 9.3967 4.43736 8.33333C4.43736 7.20486 4.66848 6.13064 5.1307 5.11068C5.59293 4.09071 6.22849 3.21181 7.03738 2.47396C7.84628 1.73611 8.78228 1.13932 9.8454 0.683594C10.9085 0.227865 12.0641 0 13.3121 0C14.5139 0 15.6579 0.217014 16.7441 0.651042C17.8303 1.08507 18.7664 1.68186 19.5521 2.44141C20.3379 3.20095 20.9735 4.09071 21.4588 5.11068C21.9442 6.13064 22.1868 7.20486 22.1868 8.33333C22.1868 9.3967 21.9788 10.4275 21.5628 11.4258C21.1468 12.424 20.5459 13.303 19.7601 14.0625C21.6553 15.0391 23.2037 16.3845 24.4055 18.099C25.6535 16.3628 27.2482 14.9957 29.1895 13.9974C31.1309 12.9991 33.234 12.5 35.4989 12.5C37.7407 12.5 39.8323 12.9991 41.7736 13.9974C43.715 14.9957 45.3212 16.3628 46.5923 18.099C47.7941 16.3845 49.3426 15.0391 51.2377 14.0625C50.475 13.303 49.8857 12.424 49.4697 11.4258C49.0537 10.4275 48.8341 9.3967 48.811 8.33333C48.811 7.20486 49.0421 6.13064 49.5043 5.11068C49.9666 4.09071 50.6021 3.21181 51.411 2.47396C52.2199 1.73611 53.1559 1.13932 54.219 0.683594C55.2822 0.227865 56.4377 0 57.6857 0C58.8875 0 60.0315 0.217014 61.1178 0.651042C62.204 1.08507 63.14 1.68186 63.9258 2.44141C64.7116 3.20095 65.3471 4.09071 65.8325 5.11068C66.3178 6.13064 66.5605 7.20486 66.5605 8.33333C66.5605 9.3967 66.3525 10.4275 65.9365 11.4258C65.5205 12.424 64.9196 13.303 64.1338 14.0625ZM8.87473 8.33333C8.87473 8.91927 8.99029 9.46181 9.2214 9.96094C9.45251 10.4601 9.76451 10.8941 10.1574 11.263C10.5503 11.6319 11.0241 11.9358 11.5787 12.1745C12.1334 12.4132 12.7112 12.5217 13.3121 12.5C13.9361 12.5 14.5139 12.3915 15.0454 12.1745C15.577 11.9575 16.0392 11.6645 16.4321 11.2956C16.825 10.9266 17.1486 10.4818 17.4028 9.96094C17.657 9.4401 17.7726 8.89757 17.7495 8.33333C17.7495 7.7474 17.6339 7.20486 17.4028 6.70573C17.1717 6.2066 16.8597 5.77257 16.4668 5.40365C16.0739 5.03472 15.6001 4.7309 15.0454 4.49219C14.4908 4.25347 13.913 4.14497 13.3121 4.16667C12.6881 4.16667 12.1103 4.27517 11.5787 4.49219C11.0472 4.7092 10.585 5.00217 10.1921 5.37109C9.79918 5.74002 9.47562 6.1849 9.2214 6.70573C8.96717 7.22656 8.85162 7.7691 8.87473 8.33333ZM35.4989 33.3333C36.7007 33.3333 37.8447 33.1163 38.9309 32.6823C40.0172 32.2483 40.9532 31.6515 41.739 30.8919C42.5247 30.1324 43.1603 29.2535 43.6456 28.2552C44.131 27.2569 44.3736 26.1719 44.3736 25C44.3736 23.8715 44.1425 22.7973 43.6803 21.7773C43.2181 20.7574 42.5825 19.8785 41.7736 19.1406C40.9647 18.4028 40.0172 17.806 38.9309 17.3503C37.8447 16.8945 36.7007 16.6667 35.4989 16.6667C34.274 16.6667 33.13 16.8837 32.0669 17.3177C31.0038 17.7517 30.0678 18.3485 29.2589 19.1081C28.45 19.8676 27.8144 20.7574 27.3522 21.7773C26.89 22.7973 26.6473 23.8715 26.6242 25C26.6242 26.1502 26.8553 27.2244 27.3175 28.2227C27.7798 29.2209 28.4153 30.0998 29.2242 30.8594C30.0331 31.6189 30.9691 32.2157 32.0322 32.6497C33.0953 33.0838 34.2509 33.3116 35.4989 33.3333ZM53.2484 8.33333C53.2484 8.91927 53.3639 9.46181 53.595 9.96094C53.8262 10.4601 54.1382 10.8941 54.5311 11.263C54.9239 11.6319 55.3977 11.9358 55.9524 12.1745C56.5071 12.4132 57.0848 12.5217 57.6857 12.5C58.3097 12.5 58.8875 12.3915 59.4191 12.1745C59.9506 11.9575 60.4129 11.6645 60.8058 11.2956C61.1987 10.9266 61.5222 10.4818 61.7764 9.96094C62.0307 9.4401 62.1462 8.89757 62.1231 8.33333C62.1231 7.7474 62.0075 7.20486 61.7764 6.70573C61.5453 6.2066 61.2333 5.77257 60.8404 5.40365C60.4475 5.03472 59.9738 4.7309 59.4191 4.49219C58.8644 4.25347 58.2866 4.14497 57.6857 4.16667C57.0617 4.16667 56.484 4.27517 55.9524 4.49219C55.4208 4.7092 54.9586 5.00217 54.5657 5.37109C54.1728 5.74002 53.8493 6.1849 53.595 6.70573C53.3408 7.22656 53.2253 7.7691 53.2484 8.33333Z" fill="#10434F"/>
</svg>
