<svg width="40" height="54" viewBox="0 0 40 54" fill="none" xmlns="http://www.w3.org/2000/svg">
<path d="M20 41.1429C18.6739 41.1429 17.4021 40.601 16.4645 39.6365C15.5268 38.6721 15 37.364 15 36C15 33.1457 17.225 30.8571 20 30.8571C21.3261 30.8571 22.5979 31.399 23.5355 32.3635C24.4732 33.3279 25 34.636 25 36C25 37.364 24.4732 38.6721 23.5355 39.6365C22.5979 40.601 21.3261 41.1429 20 41.1429ZM35 48.8571V23.1429H5V48.8571H35ZM35 18C36.3261 18 37.5979 18.5418 38.5355 19.5063C39.4732 20.4708 40 21.7789 40 23.1429V48.8571C40 50.2211 39.4732 51.5292 38.5355 52.4937C37.5979 53.4582 36.3261 54 35 54H5C3.67392 54 2.40215 53.4582 1.46447 52.4937C0.526784 51.5292 0 50.2211 0 48.8571V23.1429C0 20.2886 2.225 18 5 18H7.5V12.8571C7.5 9.44722 8.81696 6.17695 11.1612 3.76577C13.5054 1.35459 16.6848 0 20 0C21.6415 0 23.267 0.33256 24.7835 0.978692C26.3001 1.62482 27.6781 2.57187 28.8388 3.76577C29.9996 4.95967 30.9203 6.37703 31.5485 7.93693C32.1767 9.49683 32.5 11.1687 32.5 12.8571V18H35ZM20 5.14286C18.0109 5.14286 16.1032 5.95561 14.6967 7.40232C13.2902 8.84903 12.5 10.8112 12.5 12.8571V18H27.5V12.8571C27.5 10.8112 26.7098 8.84903 25.3033 7.40232C23.8968 5.95561 21.9891 5.14286 20 5.14286Z" fill="#10434F"/>
</svg>
