<svg width="48" height="57" viewBox="0 0 48 57" fill="none" xmlns="http://www.w3.org/2000/svg">
<path d="M24 0L48 8.62889V28.5C48 38.6747 41.9184 45.7874 36.2496 50.2029C32.8279 52.8434 29.0738 54.9955 25.0896 56.6006C25.0202 56.6282 24.9506 56.6553 24.8808 56.682L24.8208 56.7042L24.804 56.7091L24.7968 56.7116C24.7944 56.7116 24.792 56.7116 24 54.3867L23.2056 56.714L23.196 56.7091L23.1792 56.7042L23.1192 56.6795C22.7986 56.5579 22.4802 56.4305 22.164 56.2974C18.4548 54.7261 14.9548 52.6774 11.748 50.2004C6.084 45.7898 0 38.6772 0 28.5025V8.62889L24 0ZM24 54.3867L23.2056 56.714L24 57L24.7944 56.714L24 54.3867ZM24 51.7438L24.0216 51.7339C27.3429 50.325 30.4774 48.4901 33.3504 46.2731C38.4816 42.2816 43.2 36.446 43.2 28.5V12.1298L24 5.22664L4.8 12.1298V28.5C4.8 36.446 9.5184 42.2766 14.6496 46.2755C17.529 48.496 20.6709 50.3351 24 51.7438ZM38.5728 19.484L21.6024 36.9169L11.4192 26.4587L14.8152 22.9701L21.6 29.9447L35.1768 15.998L38.5704 19.484H38.5728Z" fill="#10434F"/>
</svg>
