<svg width="69" height="36" viewBox="0 0 69 36" fill="none" xmlns="http://www.w3.org/2000/svg">
<path fill-rule="evenodd" clip-rule="evenodd" d="M28.6261 14.9507C28.6351 14.7416 28.6398 14.5313 28.6398 14.3199C28.6398 6.41123 22.2286 0 14.3199 0C6.41123 0 0 6.41123 0 14.3199C0 14.5313 0.00457984 14.7416 0.0136459 14.9507C0.343782 7.33476 6.6226 1.26166 14.3199 1.26166C22.0171 1.26166 28.296 7.33476 28.6261 14.9507Z" fill="#8CD2E2"/>
<path d="M20.9435 14.9399C20.9435 16.252 20.5546 17.5347 19.8257 18.6257C19.0967 19.7167 18.0601 20.567 16.8477 21.0691C15.6362 21.5712 14.3019 21.7026 13.0148 21.4467C11.7278 21.1906 10.546 20.5589 9.61807 19.631C8.69012 18.7032 8.05822 17.5211 7.80279 16.2342C7.54655 14.9473 7.67755 13.6133 8.18009 12.4011C8.68181 11.1888 9.53266 10.1527 10.6232 9.42371C11.7145 8.69476 12.9974 8.30566 14.3093 8.30566C16.069 8.30566 17.7566 9.00467 19.0005 10.2488C20.2445 11.4929 20.9435 13.1804 20.9435 14.9399Z" fill="url(#paint0_linear_747_371)"/>
<path d="M1.20873 14.4056L0.266156 15.4115C0.18406 15.4991 0.145512 15.6194 0.162721 15.7382C1.52853 25.1698 9.8506 33.0293 14.1494 35.9351C14.2855 36.027 14.4631 36.0194 14.5966 35.9238C26.6345 27.2904 28.5869 15.98 28.5974 15.8023C28.608 15.6236 28.1769 15.6131 28.0297 15.6026C27.8825 15.592 27.6091 15.161 27.525 14.9928C27.4409 14.8245 27.5355 15.6656 27.4199 15.8864C27.3042 16.1072 27.0834 16.4437 26.9993 16.5698C26.9152 16.696 26.9047 17.3794 26.8521 17.4425C26.7996 17.5056 26.7539 17.1776 26.726 16.8011C26.6839 16.2334 27.4199 15.2451 27.3568 14.9928C27.2937 14.7404 25.3171 17.474 25.1489 17.5581C24.9807 17.6422 25.3381 16.8011 25.3171 16.696C25.2961 16.5909 24.844 17.2112 24.7073 17.3794C24.5706 17.5476 24.2657 17.5581 24.1291 17.5581C23.9924 17.5581 24.1711 18.0733 24.0239 18.21C23.8767 18.3467 22.3732 20.0289 22.3312 19.7766C22.3114 19.6584 22.3892 19.4794 22.4832 19.3181C22.5835 19.1457 22.5743 18.9223 22.4107 18.8083C22.1194 18.6053 21.7533 18.439 21.6057 18.4623C21.406 18.4939 21.427 18.3992 21.1957 18.2731C20.9644 18.1469 20.9434 18.3572 20.6174 18.3362C20.2915 18.3151 19.8604 17.7684 19.6396 17.7369C19.4188 17.7053 19.3347 17.3794 19.0929 17.2848C18.8511 17.1902 18.6093 17.4215 18.2939 17.3794C17.9784 17.3373 16.8009 16.328 16.3698 15.9705C15.4446 15.0138 15.4867 14.6563 15.2343 14.4565C15.1189 14.3652 14.6876 13.8047 14.5299 13.8047C14.3604 13.8047 13.4785 15.0243 13.3313 15.203C13.1841 15.3818 13.0369 15.2556 12.9108 15.2871C12.7846 15.3187 11.9645 16.5383 11.586 16.717C11.2075 16.8958 10.6398 17.6317 10.5872 17.842C10.5346 18.0523 9.294 19.5032 9.10475 19.6399C8.9155 19.7766 8.37929 18.9565 8.30569 18.7567C8.2321 18.557 7.97976 18.62 7.72743 18.62C7.4751 18.62 7.04403 17.2427 7.023 17.1166C7.00197 16.9904 6.49731 17.3689 6.37114 17.4215C6.24498 17.474 6.05573 17.064 5.9611 16.8747C5.86648 16.6855 4.62584 18.8303 4.38402 18.8934C4.23279 18.9328 4.07912 18.8619 3.88987 18.8619C3.70062 18.8619 3.1539 19.6399 3.1539 19.5663C3.1539 19.5032 3.61651 18.9039 3.7637 18.7988C3.9109 18.6936 4.22631 18.8198 4.31042 18.7988C4.36726 18.7846 4.63808 18.3844 4.78212 18.1442C4.8256 18.0717 4.84264 17.9851 4.81063 17.9068C4.55615 17.2846 3.15043 16.1374 2.95414 15.9705C2.74386 15.7918 2.64923 15.0243 2.43896 15.0243C2.22868 15.0243 1.96583 14.6879 1.8607 14.6143C1.75556 14.5407 1.38757 15.6551 1.29295 15.6551C1.22928 15.6551 1.29502 14.9758 1.35506 14.4742C1.36478 14.393 1.26462 14.3459 1.20873 14.4056Z" fill="#3E8292"/>
<path d="M4.98378 19.4506C5.18174 19.2527 5.46321 18.4225 5.5901 18.0248C5.59785 18.0005 5.62927 18.0076 5.62481 18.0327C5.52436 18.6 5.27056 19.3311 5.18354 19.4927C5.10995 19.6294 3.84828 20.4495 3.74315 20.4495C3.65903 20.4495 4.54397 19.8905 4.98378 19.4506Z" fill="white"/>
<path d="M11.3725 20.9305L11.3741 20.9238C11.3793 20.9023 11.4038 20.9043 11.4059 20.9264C11.4356 21.239 11.4657 21.76 11.3969 21.8898C11.3023 22.0685 10.4297 22.5837 10.2825 22.7309C10.1353 22.8781 9.42034 22.7309 9.12595 22.7309C8.83156 22.7309 8.11662 23.3407 7.95891 23.3407C7.80121 23.3407 8.54769 22.5837 8.81054 22.3629C9.07338 22.1421 9.72524 22.3419 10.0407 22.3629C10.3561 22.3839 10.8502 21.711 11.071 21.5639C11.2482 21.4457 11.3306 21.1044 11.3725 20.9305Z" fill="white"/>
<path d="M11.18 18.2804C10.6743 18.8187 9.8411 20.6736 9.77183 20.8929C9.76834 20.9039 9.75741 20.9126 9.74639 20.909C9.63446 20.8721 9.76552 20.5082 9.92494 20.0499C10.0158 19.7887 10.8712 18.2205 11.0709 17.9681C11.2707 17.7158 11.5441 17.6317 11.8174 17.5791C12.0908 17.5266 11.7754 17.1586 11.8174 17.0429C11.8595 16.9273 12.8373 15.8654 12.9845 15.7813C13.1317 15.6972 12.7742 16.0231 12.7216 16.1493C12.6691 16.2754 12.259 16.8327 12.0803 17.0429C11.9015 17.2532 12.3221 17.8104 12.1539 17.8104C11.9857 17.8104 11.7649 17.6738 11.502 17.9681C11.3641 18.1226 11.4459 18.6101 11.2121 18.284C11.2044 18.2732 11.1891 18.2707 11.18 18.2804Z" fill="white"/>
<path d="M13.9308 15.2866C13.9504 15.1196 14.1445 14.6037 14.3586 14.3652C14.3722 14.35 14.3944 14.3623 14.3895 14.382C14.2884 14.7816 13.9786 15.4227 14.1621 15.9175C14.4039 16.5693 14.6247 18.1043 14.5406 18.1043C14.4565 18.1043 14.1516 16.6639 14.0359 16.6114C13.9203 16.5588 13.4682 17.0319 13.4156 17.1371C13.363 17.2422 13.5523 18.2621 13.4156 18.2621C13.2789 18.2621 13.2053 17.2738 13.2158 17.1371C13.2263 17.0004 13.8467 16.2119 13.9308 16.1488C14.0149 16.0857 13.9097 15.4654 13.9308 15.2866Z" fill="white"/>
<path d="M16.0441 18.852C16.3132 18.7426 17.2076 17.8952 17.6212 17.4852C17.6744 17.4326 17.3478 18.0319 17.1901 18.2632C17.0324 18.4945 16.0441 19.2305 15.8864 19.2831C15.7287 19.3356 15.8023 19.5985 15.613 19.6826C15.4238 19.7667 14.5406 21.3648 14.4039 21.3648C14.2672 21.3648 14.8245 20.387 14.9086 20.1767C14.9927 19.9665 13.4156 20.1767 13.321 20.0506C13.2264 19.9244 14.9086 19.9349 15.0768 19.6826C15.245 19.4302 15.7076 18.9887 16.0441 18.852Z" fill="white"/>
<path d="M17.9997 19.0829C18.1347 18.9876 18.6303 18.3725 18.9005 18.0268C18.9136 18.0101 18.9377 18.0208 18.9323 18.0413C18.8353 18.408 18.3251 18.7949 17.9997 19.3668C17.6528 19.9766 17.4076 20.7653 17.3373 20.66C17.2953 20.5969 17.821 19.2091 17.9997 19.0829Z" fill="white"/>
<path d="M18.2837 22.0794C20.4853 21.6196 21.2938 20.5831 21.4994 20.3315C21.5125 20.3155 21.5314 20.3261 21.5253 20.3457C21.2913 21.0886 19.8934 22.4542 19.5769 22.6787C19.2509 22.91 19.9028 21.9217 19.4507 22.1425C19.0951 22.3162 17.3446 22.2756 18.2837 22.0794Z" fill="white"/>
<path d="M25.223 18.336C25.1473 18.2098 25.5138 17.7157 25.7066 17.4844C25.7907 17.3803 25.5594 18.0626 25.4753 18.2624C25.3912 18.4621 26.0536 18.2624 26.043 18.5778C26.0325 18.8932 24.9391 20.3441 24.7498 20.5439C24.6058 20.696 25.5804 18.9458 25.7066 18.7145C25.8328 18.4832 25.3176 18.4937 25.223 18.336Z" fill="white"/>
<path d="M36.1717 15.918V11.1405H34.2876V10.0303H39.4184V11.1405H37.5343V15.918H36.1717ZM40.1516 15.918V10.0303H42.7002C43.2271 10.0303 43.6813 10.1172 44.0628 10.291C44.444 10.4592 44.7384 10.7032 44.9459 11.0228C45.1533 11.3424 45.2571 11.7237 45.2571 12.1667C45.2571 12.6041 45.1533 12.9826 44.9459 13.3022C44.7384 13.6162 44.444 13.8573 44.0628 14.0255C43.6813 14.1938 43.2271 14.2779 42.7002 14.2779H40.9086L41.5142 13.6807V15.918H40.1516ZM43.8945 15.918L42.4226 13.7816H43.8777L45.3665 15.918H43.8945ZM41.5142 13.8321L40.9086 13.1928H42.6245C43.045 13.1928 43.359 13.1031 43.5665 12.9237C43.7738 12.7386 43.8777 12.4863 43.8777 12.1667C43.8777 11.8415 43.7738 11.5891 43.5665 11.4097C43.359 11.2303 43.045 11.1405 42.6245 11.1405H40.9086L41.5142 10.4929V13.8321ZM46.3367 15.918V10.0303H47.6993V15.918H46.3367ZM49.0966 15.918V10.0303H51.6451C52.1721 10.0303 52.6263 10.1172 53.0077 10.291C53.389 10.4592 53.6834 10.7032 53.8909 11.0228C54.0982 11.3424 54.2021 11.7237 54.2021 12.1667C54.2021 12.6041 54.0982 12.9826 53.8909 13.3022C53.6834 13.6218 53.389 13.8685 53.0077 14.0424C52.6263 14.2106 52.1721 14.2947 51.6451 14.2947H49.8536L50.4592 13.6807V15.918H49.0966ZM50.4592 13.8321L49.8536 13.1844H51.5694C51.99 13.1844 52.3039 13.0947 52.5115 12.9153C52.7188 12.7358 52.8227 12.4863 52.8227 12.1667C52.8227 11.8415 52.7188 11.5891 52.5115 11.4097C52.3039 11.2303 51.99 11.1405 51.5694 11.1405H49.8536L50.4592 10.4929V13.8321ZM36.2053 22.6637H39.0399V23.7235H36.2053V22.6637ZM36.3063 25.0861H39.5109V26.1796H34.9521V20.2918H39.4015V21.3852H36.3063V25.0861ZM39.8648 26.1796L42.3965 22.689V23.6815L39.9741 20.2918H41.5218L43.1956 22.6553L42.5479 22.6637L44.1965 20.2918H45.6768L43.2713 23.6226V22.6469L45.8198 26.1796H44.247L42.5143 23.6815H43.1367L41.4292 26.1796H39.8648ZM46.3531 26.1796V20.2918H48.9017C49.4286 20.2918 49.8828 20.3787 50.2642 20.5525C50.6455 20.7208 50.9399 20.9647 51.1474 21.2843C51.3547 21.6039 51.4586 21.9852 51.4586 22.4282C51.4586 22.8656 51.3547 23.2441 51.1474 23.5637C50.9399 23.8833 50.6455 24.13 50.2642 24.3039C49.8828 24.4721 49.4286 24.5562 48.9017 24.5562H47.1101L47.7157 23.9422V26.1796H46.3531ZM47.7157 24.0936L47.1101 23.446H48.826C49.2465 23.446 49.5605 23.3562 49.768 23.1768C49.9753 22.9974 50.0792 22.7478 50.0792 22.4282C50.0792 22.1029 49.9753 21.8506 49.768 21.6712C49.5605 21.4919 49.2465 21.4021 48.826 21.4021H47.1101L47.7157 20.7544V24.0936ZM53.6846 22.6637H56.5192V23.7235H53.6846V22.6637ZM53.7856 25.0861H56.9902V26.1796H52.4314V20.2918H56.8808V21.3852H53.7856V25.0861ZM58.0744 26.1796V20.2918H60.6229C61.1501 20.2918 61.6043 20.3787 61.9855 20.5525C62.3668 20.7208 62.6611 20.9647 62.8687 21.2843C63.0762 21.6039 63.1799 21.9852 63.1799 22.4282C63.1799 22.8656 63.0762 23.2441 62.8687 23.5637C62.6611 23.8777 62.3668 24.1188 61.9855 24.2871C61.6043 24.4553 61.1501 24.5394 60.6229 24.5394H58.8314L59.437 23.9422V26.1796H58.0744ZM61.8173 26.1796L60.3454 24.0431H61.8005L63.2892 26.1796H61.8173ZM59.437 24.0936L58.8314 23.4544H60.5472C60.9678 23.4544 61.2817 23.3646 61.4893 23.1852C61.6968 23.0002 61.8005 22.7478 61.8005 22.4282C61.8005 22.1029 61.6968 21.8506 61.4893 21.6712C61.2817 21.4919 60.9678 21.4021 60.5472 21.4021H58.8314L59.437 20.7544V24.0936ZM65.3969 26.1796V21.4021H63.5128V20.2918H68.6435V21.4021H66.7595V26.1796H65.3969Z" fill="#3E8292"/>
<defs>
<linearGradient id="paint0_linear_747_371" x1="14.3093" y1="8.30566" x2="14.3093" y2="21.5742" gradientUnits="userSpaceOnUse">
<stop stop-color="#8CD2E2"/>
<stop offset="1" stop-color="#8CD2E2" stop-opacity="0"/>
</linearGradient>
</defs>
</svg>
