<svg width="122" height="43" viewBox="0 0 122 43" fill="none" xmlns="http://www.w3.org/2000/svg">
<g clip-path="url(#clip0_740_715)">
<g filter="url(#filter0_d_740_715)">
<path fill-rule="evenodd" clip-rule="evenodd" d="M33.5916 17.7647C33.6022 17.5162 33.6076 17.2663 33.6076 17.0151C33.6076 7.61792 26.1064 0 16.853 0C7.59967 0 0.0983887 7.61792 0.0983887 17.0151C0.0983887 17.2663 0.103747 17.5162 0.114355 17.7647C0.500622 8.71528 7.84698 1.49913 16.853 1.49913C25.8589 1.49913 33.2053 8.71528 33.5916 17.7647Z" fill="white"/>
<path d="M24.6029 17.7521C24.6029 19.3111 24.1479 20.8353 23.295 22.1316C22.4421 23.428 21.2293 24.4382 19.8108 25.0348C18.3932 25.6315 16.832 25.7876 15.3261 25.4836C13.8203 25.1792 12.4376 24.4286 11.3519 23.3261C10.2661 22.2236 9.52681 20.8191 9.22795 19.2899C8.92814 17.7608 9.08142 16.1758 9.6694 14.7354C10.2564 13.2949 11.2519 12.0638 12.5278 11.1976C13.8047 10.3315 15.3058 9.86914 16.8407 9.86914C18.8997 9.86914 20.8742 10.6997 22.3296 12.1779C23.785 13.6563 24.6029 15.6614 24.6029 17.7521Z" fill="url(#paint0_linear_740_715)"/>
<path d="M1.51299 17.1173L0.41016 18.3126C0.314106 18.4167 0.269004 18.5595 0.289139 18.7007C1.88717 29.9075 11.6242 39.2463 16.6539 42.699C16.8132 42.8082 17.0209 42.7992 17.1772 42.6855C31.2617 32.4273 33.5461 18.988 33.5584 18.7769C33.5707 18.5646 33.0664 18.5521 32.8941 18.5396C32.7219 18.5271 32.4021 18.0149 32.3037 17.815C32.2053 17.6151 32.316 18.6145 32.1807 18.8769C32.0453 19.1392 31.787 19.539 31.6886 19.6889C31.5902 19.8388 31.5779 20.6509 31.5164 20.7258C31.4549 20.8008 31.4015 20.411 31.3688 19.9638C31.3196 19.2891 32.1807 18.1148 32.1069 17.815C32.033 17.5152 29.7204 20.7633 29.5236 20.8632C29.3267 20.9632 29.745 19.9638 29.7204 19.8388C29.6958 19.7139 29.1668 20.451 29.0069 20.6509C28.847 20.8507 28.4902 20.8632 28.3303 20.8632C28.1704 20.8632 28.3795 21.4754 28.2073 21.6378C28.0351 21.8002 26.276 23.799 26.2268 23.4992C26.2036 23.3589 26.2947 23.1461 26.4046 22.9544C26.522 22.7496 26.5112 22.4842 26.3198 22.3486C25.979 22.1075 25.5507 21.9099 25.378 21.9376C25.1442 21.9751 25.1688 21.8626 24.8982 21.7127C24.6276 21.5628 24.603 21.8127 24.2216 21.7877C23.8403 21.7627 23.3359 21.1131 23.0776 21.0756C22.8193 21.0381 22.7208 20.6509 22.4379 20.5384C22.155 20.426 21.872 20.7008 21.503 20.6509C21.134 20.6009 19.7562 19.4016 19.2518 18.9768C18.1693 17.84 18.2185 17.4152 17.9233 17.1779C17.7882 17.0693 17.2836 16.4033 17.0991 16.4033C16.9007 16.4033 15.8689 17.8525 15.6967 18.0649C15.5245 18.2772 15.3523 18.1273 15.2046 18.1648C15.057 18.2023 14.0975 19.6514 13.6547 19.8638C13.2118 20.0762 12.5475 20.9507 12.486 21.2005C12.4245 21.4504 10.9729 23.1744 10.7515 23.3368C10.5301 23.4992 9.90272 22.5248 9.81661 22.2874C9.7305 22.05 9.43526 22.125 9.14003 22.125C8.84479 22.125 8.34043 20.4884 8.31583 20.3385C8.29122 20.1886 7.70075 20.6384 7.55314 20.7008C7.40552 20.7633 7.18409 20.2761 7.07338 20.0512C6.96267 19.8263 5.51109 22.3748 5.22816 22.4498C5.05121 22.4967 4.87142 22.4123 4.64999 22.4123C4.42856 22.4123 3.78889 23.3368 3.78889 23.2493C3.78889 23.1744 4.33015 22.4623 4.50237 22.3374C4.67459 22.2124 5.04364 22.3624 5.14205 22.3374C5.20855 22.3205 5.52541 21.845 5.69394 21.5596C5.74482 21.4734 5.76475 21.3706 5.7273 21.2776C5.42956 20.5382 3.78483 19.1751 3.55516 18.9768C3.30913 18.7644 3.19842 17.8525 2.95239 17.8525C2.70636 17.8525 2.39882 17.4527 2.27581 17.3653C2.15279 17.2778 1.72224 18.602 1.61153 18.602C1.53703 18.602 1.61396 17.7949 1.68421 17.1989C1.69557 17.1024 1.57838 17.0464 1.51299 17.1173Z" fill="white"/>
<path d="M5.92931 23.1115C6.16092 22.8763 6.49023 21.8899 6.63871 21.4173C6.64779 21.3883 6.68455 21.3968 6.67933 21.4267C6.56178 22.1007 6.26482 22.9695 6.16302 23.1615C6.07691 23.3239 4.60075 24.2983 4.47774 24.2983C4.37933 24.2983 5.41469 23.6341 5.92931 23.1115Z" fill="#10434F"/>
<path d="M13.4046 24.8697L13.4065 24.8617C13.4126 24.8361 13.4412 24.8385 13.4436 24.8647C13.4784 25.2362 13.5136 25.8553 13.4332 26.0095C13.3225 26.2219 12.3014 26.834 12.1292 27.0089C11.957 27.1838 11.1205 27.0089 10.7761 27.0089C10.4316 27.0089 9.59512 27.7335 9.41059 27.7335C9.22607 27.7335 10.0995 26.834 10.407 26.5717C10.7145 26.3093 11.4772 26.5467 11.8463 26.5717C12.2153 26.5967 12.7935 25.7971 13.0518 25.6222C13.2591 25.4818 13.3555 25.0763 13.4046 24.8697Z" fill="#10434F"/>
<path d="M13.1794 21.7211C12.5877 22.3608 11.6129 24.5648 11.5318 24.8253C11.5277 24.8385 11.5149 24.8487 11.502 24.8444C11.3711 24.8006 11.5244 24.3682 11.7109 23.8237C11.8172 23.5133 12.8181 21.6499 13.0518 21.3501C13.2855 21.0503 13.6054 20.9503 13.9252 20.8879C14.245 20.8254 13.876 20.3882 13.9252 20.2507C13.9744 20.1133 15.1184 18.8516 15.2907 18.7516C15.4629 18.6517 15.0446 19.0389 14.9831 19.1889C14.9216 19.3388 14.4419 20.0009 14.2327 20.2507C14.0236 20.5006 14.5157 21.1627 14.3188 21.1627C14.122 21.1627 13.8637 21.0003 13.5561 21.3501C13.3948 21.5337 13.4906 22.1129 13.217 21.7254C13.2079 21.7126 13.19 21.7096 13.1794 21.7211Z" fill="#10434F"/>
<path d="M16.3978 18.1645C16.4208 17.966 16.648 17.3529 16.8985 17.0696C16.9144 17.0516 16.9404 17.0661 16.9345 17.0895C16.8162 17.5644 16.4537 18.3262 16.6685 18.914C16.9514 19.6886 17.2097 21.5125 17.1113 21.5125C17.0129 21.5125 16.6562 19.801 16.5209 19.7386C16.3855 19.6761 15.8566 20.2383 15.7951 20.3632C15.7336 20.4881 15.955 21.6999 15.7951 21.6999C15.6351 21.6999 15.549 20.5256 15.5613 20.3632C15.5736 20.2008 16.2994 19.2638 16.3978 19.1889C16.4963 19.1139 16.3732 18.3768 16.3978 18.1645Z" fill="#10434F"/>
<path d="M18.8704 22.3994C19.1853 22.2695 20.2318 21.2626 20.7156 20.7753C20.7779 20.7129 20.3958 21.425 20.2112 21.6998C20.0267 21.9746 18.8704 22.8491 18.6859 22.9116C18.5013 22.9741 18.5875 23.2864 18.366 23.3863C18.1446 23.4863 17.1113 25.3852 16.9514 25.3852C16.7914 25.3852 17.4434 24.2233 17.5418 23.9735C17.6402 23.7236 15.795 23.9735 15.6843 23.8236C15.5736 23.6737 17.5418 23.6862 17.7387 23.3863C17.9355 23.0865 18.4767 22.5618 18.8704 22.3994Z" fill="#10434F"/>
<path d="M21.1585 22.6739C21.3165 22.5606 21.8963 21.8297 22.2125 21.4189C22.2277 21.3991 22.256 21.4118 22.2497 21.4362C22.1362 21.872 21.5392 22.3317 21.1585 23.0112C20.7526 23.7358 20.4657 24.673 20.3835 24.5478C20.3343 24.4728 20.9494 22.8238 21.1585 22.6739Z" fill="#10434F"/>
<path d="M21.4907 26.2346C24.0667 25.6882 25.0126 24.4567 25.2532 24.1576C25.2685 24.1387 25.2909 24.1513 25.2835 24.1746C25.0096 25.0573 23.3742 26.6798 23.0038 26.9467C22.6224 27.2215 23.3851 26.0472 22.8562 26.3096C22.4401 26.5159 20.392 26.4677 21.4907 26.2346Z" fill="#10434F"/>
<path d="M29.6096 21.7873C29.521 21.6374 29.9498 21.0503 30.1754 20.7754C30.2739 20.6518 30.0032 21.4625 29.9048 21.6999C29.8064 21.9373 30.5814 21.6999 30.5691 22.0747C30.5568 22.4495 29.2774 24.1735 29.056 24.4108C28.8875 24.5915 30.0278 22.5119 30.1754 22.2371C30.3231 21.9622 29.7203 21.9747 29.6096 21.7873Z" fill="#10434F"/>
<path d="M43.2775 17.2406V6.4968H39V4H50.6486V6.4968H46.3711V17.2406H43.2775ZM52.3133 17.2406V4H58.0995C59.2958 4 60.327 4.19544 61.193 4.58637C62.0586 4.96467 62.7269 5.51321 63.1981 6.23199C63.6688 6.95077 63.9047 7.80824 63.9047 8.80445C63.9047 9.78804 63.6688 10.6392 63.1981 11.358C62.7269 12.0641 62.0586 12.6064 61.193 12.9847C60.327 13.363 59.2958 13.5522 58.0995 13.5522H54.032L55.4069 12.2092V17.2406H52.3133ZM60.8111 17.2406L57.4693 12.4362H60.7729L64.1529 17.2406H60.8111ZM55.4069 12.5497L54.032 11.1121H57.9276C58.8824 11.1121 59.5952 10.9103 60.0664 10.5068C60.5371 10.0907 60.7729 9.52323 60.7729 8.80445C60.7729 8.07305 60.5371 7.50559 60.0664 7.10209C59.5952 6.69858 58.8824 6.4968 57.9276 6.4968H54.032L55.4069 5.04033V12.5497ZM66.3557 17.2406V4H69.4492V17.2406H66.3557ZM72.6216 17.2406V4H78.4077C79.6041 4 80.6353 4.19544 81.5013 4.58637C82.3668 4.96467 83.0352 5.51321 83.5064 6.23199C83.9771 6.95077 84.2129 7.80824 84.2129 8.80445C84.2129 9.78804 83.9771 10.6392 83.5064 11.358C83.0352 12.0768 82.3668 12.6316 81.5013 13.0225C80.6353 13.4008 79.6041 13.59 78.4077 13.59H74.3402L75.7151 12.2092V17.2406H72.6216ZM75.7151 12.5497L74.3402 11.0932H78.2358C79.1906 11.0932 79.9034 10.8914 80.3746 10.4879C80.8453 10.0844 81.0812 9.52323 81.0812 8.80445C81.0812 8.07305 80.8453 7.50559 80.3746 7.10209C79.9034 6.69858 79.1906 6.4968 78.2358 6.4968H74.3402L75.7151 5.04033V12.5497ZM43.3539 30.0935H49.7893V32.4768H43.3539V30.0935ZM43.5831 35.541H50.8587V38H40.5086V24.7594H50.6104V27.2184H43.5831V35.541ZM51.6622 38L57.4101 30.1502V32.3822L51.9104 24.7594H55.4241L59.2242 30.0745L57.7538 30.0935L61.4967 24.7594H64.8576L59.3961 32.2498V30.0556L65.1822 38H61.6112L57.6774 32.3822H59.0906L55.214 38H51.6622ZM66.3929 38V24.7594H72.179C73.3754 24.7594 74.4066 24.9548 75.2726 25.3458C76.1381 25.7241 76.8065 26.2726 77.2777 26.9914C77.7484 27.7102 77.9842 28.5675 77.9842 29.5638C77.9842 30.5474 77.7484 31.3986 77.2777 32.1174C76.8065 32.8362 76.1381 33.3909 75.2726 33.7819C74.4066 34.1602 73.3754 34.3494 72.179 34.3494H68.1116L69.4865 32.9686V38H66.3929ZM69.4865 33.309L68.1116 31.8526H72.0072C72.962 31.8526 73.6747 31.6507 74.1459 31.2473C74.6166 30.8439 74.8525 30.2826 74.8525 29.5638C74.8525 28.8323 74.6166 28.2648 74.1459 27.8615C73.6747 27.458 72.962 27.2562 72.0072 27.2562H68.1116L69.4865 25.7997V33.309ZM83.038 30.0935H89.4734V32.4768H83.038V30.0935ZM83.2672 35.541H90.5428V38H80.1927V24.7594H90.2946V27.2184H83.2672V35.541ZM93.0043 38V24.7594H98.7904C99.9873 24.7594 101.018 24.9548 101.884 25.3458C102.75 25.7241 103.418 26.2726 103.889 26.9914C104.36 27.7102 104.596 28.5675 104.596 29.5638C104.596 30.5474 104.36 31.3986 103.889 32.1174C103.418 32.8234 102.75 33.3658 101.884 33.7441C101.018 34.1224 99.9873 34.3115 98.7904 34.3115H94.723L96.0979 32.9686V38H93.0043ZM101.502 38L98.1603 33.1956H101.464L104.844 38H101.502ZM96.0979 33.309L94.723 31.8715H98.6186C99.5734 31.8715 100.286 31.6696 100.757 31.2662C101.229 30.8501 101.464 30.2826 101.464 29.5638C101.464 28.8323 101.229 28.2648 100.757 27.8615C100.286 27.458 99.5734 27.2562 98.6186 27.2562H94.723L96.0979 25.7997V33.309ZM109.629 38V27.2562H105.351V24.7594H117V27.2562H112.722V38H109.629Z" fill="white"/>
</g>
</g>
<defs>
<filter id="filter0_d_740_715" x="-3.90161" y="0" width="124.902" height="50.7764" filterUnits="userSpaceOnUse" color-interpolation-filters="sRGB">
<feFlood flood-opacity="0" result="BackgroundImageFix"/>
<feColorMatrix in="SourceAlpha" type="matrix" values="0 0 0 0 0 0 0 0 0 0 0 0 0 0 0 0 0 0 127 0" result="hardAlpha"/>
<feOffset dy="4"/>
<feGaussianBlur stdDeviation="2"/>
<feComposite in2="hardAlpha" operator="out"/>
<feColorMatrix type="matrix" values="0 0 0 0 0 0 0 0 0 0 0 0 0 0 0 0 0 0 0.25 0"/>
<feBlend mode="normal" in2="BackgroundImageFix" result="effect1_dropShadow_740_715"/>
<feBlend mode="normal" in="SourceGraphic" in2="effect1_dropShadow_740_715" result="shape"/>
</filter>
<linearGradient id="paint0_linear_740_715" x1="16.8407" y1="9.86914" x2="16.8407" y2="25.635" gradientUnits="userSpaceOnUse">
<stop stop-color="white"/>
<stop offset="1" stop-color="white" stop-opacity="0"/>
</linearGradient>
<clipPath id="clip0_740_715">
<rect width="122" height="43" fill="white"/>
</clipPath>
</defs>
</svg>
